<mxfile host="app.diagrams.net" modified="2023-09-13T16:24:39.532Z" agent="Mozilla/5.0 (Windows NT 10.0; Win64; x64) AppleWebKit/537.36 (KHTML, like Gecko) Chrome/116.0.0.0 Safari/537.36" etag="L3wjOXERsDl373i5dsBX" version="21.7.2" type="github">
  <diagram name="Página-1" id="gihpD0etb8r8OHIwZ6kv">
    <mxGraphModel dx="1434" dy="800" grid="1" gridSize="10" guides="1" tooltips="1" connect="1" arrows="1" fold="1" page="1" pageScale="1" pageWidth="827" pageHeight="1169" math="0" shadow="0">
      <root>
        <mxCell id="0" />
        <mxCell id="1" parent="0" />
        <mxCell id="MCNykvPJfx8BUbakbppT-4" value="&lt;b&gt;sd &lt;/b&gt;manter uso de homônimos" style="shape=umlFrame;whiteSpace=wrap;html=1;pointerEvents=0;width=170;height=40;" vertex="1" parent="1">
          <mxGeometry x="160" y="120" width="460" height="460" as="geometry" />
        </mxCell>
        <mxCell id="MCNykvPJfx8BUbakbppT-7" value=":&lt;u&gt;Hormonio&lt;/u&gt;" style="shape=umlLifeline;perimeter=lifelinePerimeter;whiteSpace=wrap;html=1;container=1;dropTarget=0;collapsible=0;recursiveResize=0;outlineConnect=0;portConstraint=eastwest;newEdgeStyle={&quot;curved&quot;:0,&quot;rounded&quot;:0};" vertex="1" parent="1">
          <mxGeometry x="330" y="240" width="100" height="300" as="geometry" />
        </mxCell>
        <mxCell id="MCNykvPJfx8BUbakbppT-8" value=":HormonioController" style="shape=umlLifeline;perimeter=lifelinePerimeter;whiteSpace=wrap;html=1;container=1;dropTarget=0;collapsible=0;recursiveResize=0;outlineConnect=0;portConstraint=eastwest;newEdgeStyle={&quot;curved&quot;:0,&quot;rounded&quot;:0};" vertex="1" parent="1">
          <mxGeometry x="480" y="240" width="115" height="300" as="geometry" />
        </mxCell>
        <mxCell id="MCNykvPJfx8BUbakbppT-11" value="" style="shape=umlActor;verticalLabelPosition=bottom;verticalAlign=top;html=1;" vertex="1" parent="1">
          <mxGeometry x="220" y="210" width="30" height="60" as="geometry" />
        </mxCell>
        <mxCell id="MCNykvPJfx8BUbakbppT-18" value="Pessoa" style="text;html=1;strokeColor=none;fillColor=none;align=center;verticalAlign=middle;whiteSpace=wrap;rounded=0;" vertex="1" parent="1">
          <mxGeometry x="205" y="280" width="60" height="30" as="geometry" />
        </mxCell>
        <mxCell id="MCNykvPJfx8BUbakbppT-21" value="" style="endArrow=none;dashed=1;html=1;rounded=0;entryX=0.5;entryY=1;entryDx=0;entryDy=0;exitX=0.55;exitY=0;exitDx=0;exitDy=0;exitPerimeter=0;" edge="1" parent="1" source="MCNykvPJfx8BUbakbppT-22" target="MCNykvPJfx8BUbakbppT-18">
          <mxGeometry width="50" height="50" relative="1" as="geometry">
            <mxPoint x="390" y="440" as="sourcePoint" />
            <mxPoint x="440" y="390" as="targetPoint" />
          </mxGeometry>
        </mxCell>
        <mxCell id="MCNykvPJfx8BUbakbppT-22" value="" style="text;strokeColor=none;fillColor=none;align=left;verticalAlign=middle;spacingTop=-1;spacingLeft=4;spacingRight=4;rotatable=0;labelPosition=right;points=[];portConstraint=eastwest;" vertex="1" parent="1">
          <mxGeometry x="225" y="540" width="20" height="14" as="geometry" />
        </mxCell>
        <mxCell id="MCNykvPJfx8BUbakbppT-23" value="" style="rounded=0;whiteSpace=wrap;html=1;" vertex="1" parent="1">
          <mxGeometry x="372.5" y="320" width="15" height="215" as="geometry" />
        </mxCell>
        <mxCell id="MCNykvPJfx8BUbakbppT-26" value="" style="endArrow=open;html=1;rounded=0;entryX=0;entryY=0;entryDx=0;entryDy=0;endFill=0;" edge="1" parent="1" target="MCNykvPJfx8BUbakbppT-23">
          <mxGeometry width="50" height="50" relative="1" as="geometry">
            <mxPoint x="240" y="320" as="sourcePoint" />
            <mxPoint x="440" y="390" as="targetPoint" />
          </mxGeometry>
        </mxCell>
        <mxCell id="MCNykvPJfx8BUbakbppT-28" value="" style="endArrow=open;html=1;rounded=0;endFill=0;entryX=0;entryY=0;entryDx=0;entryDy=0;" edge="1" parent="1" target="MCNykvPJfx8BUbakbppT-29">
          <mxGeometry width="50" height="50" relative="1" as="geometry">
            <mxPoint x="393" y="460" as="sourcePoint" />
            <mxPoint x="383" y="330" as="targetPoint" />
          </mxGeometry>
        </mxCell>
        <mxCell id="MCNykvPJfx8BUbakbppT-29" value="" style="rounded=0;whiteSpace=wrap;html=1;" vertex="1" parent="1">
          <mxGeometry x="530" y="460" width="15" height="40" as="geometry" />
        </mxCell>
        <mxCell id="MCNykvPJfx8BUbakbppT-30" value="" style="endArrow=open;html=1;rounded=0;endFill=0;exitX=0;exitY=1;exitDx=0;exitDy=0;dashed=1;" edge="1" parent="1" source="MCNykvPJfx8BUbakbppT-29">
          <mxGeometry width="50" height="50" relative="1" as="geometry">
            <mxPoint x="401" y="380" as="sourcePoint" />
            <mxPoint x="390" y="500" as="targetPoint" />
          </mxGeometry>
        </mxCell>
        <mxCell id="MCNykvPJfx8BUbakbppT-31" value="Envia os dados para alteração" style="text;html=1;strokeColor=none;fillColor=none;align=center;verticalAlign=middle;whiteSpace=wrap;rounded=0;" vertex="1" parent="1">
          <mxGeometry x="405" y="430" width="110" height="30" as="geometry" />
        </mxCell>
        <mxCell id="MCNykvPJfx8BUbakbppT-32" value="Retorna ok" style="text;html=1;strokeColor=none;fillColor=none;align=center;verticalAlign=middle;whiteSpace=wrap;rounded=0;" vertex="1" parent="1">
          <mxGeometry x="425" y="470" width="80" height="30" as="geometry" />
        </mxCell>
        <mxCell id="MCNykvPJfx8BUbakbppT-33" value="" style="endArrow=open;html=1;rounded=0;endFill=0;exitX=0.033;exitY=0.195;exitDx=0;exitDy=0;dashed=1;exitPerimeter=0;" edge="1" parent="1">
          <mxGeometry width="50" height="50" relative="1" as="geometry">
            <mxPoint x="372.5049999999999" y="390.00499999999994" as="sourcePoint" />
            <mxPoint x="239.51" y="390.08" as="targetPoint" />
          </mxGeometry>
        </mxCell>
        <mxCell id="MCNykvPJfx8BUbakbppT-34" value="seleciona opção inserir hormônio" style="text;html=1;strokeColor=none;fillColor=none;align=center;verticalAlign=middle;whiteSpace=wrap;rounded=0;" vertex="1" parent="1">
          <mxGeometry x="255" y="290" width="110" height="30" as="geometry" />
        </mxCell>
        <mxCell id="MCNykvPJfx8BUbakbppT-35" value="Lista de hormônios" style="text;html=1;strokeColor=none;fillColor=none;align=center;verticalAlign=middle;whiteSpace=wrap;rounded=0;" vertex="1" parent="1">
          <mxGeometry x="245" y="350" width="130" height="30" as="geometry" />
        </mxCell>
        <mxCell id="MCNykvPJfx8BUbakbppT-37" value="" style="rounded=0;whiteSpace=wrap;html=1;" vertex="1" parent="1">
          <mxGeometry x="530" y="330" width="15" height="40" as="geometry" />
        </mxCell>
        <mxCell id="MCNykvPJfx8BUbakbppT-38" value="Solicita lista de hormonios" style="text;html=1;strokeColor=none;fillColor=none;align=center;verticalAlign=middle;whiteSpace=wrap;rounded=0;" vertex="1" parent="1">
          <mxGeometry x="400" y="300" width="130" height="30" as="geometry" />
        </mxCell>
        <mxCell id="MCNykvPJfx8BUbakbppT-39" value="Retorna lista" style="text;html=1;strokeColor=none;fillColor=none;align=center;verticalAlign=middle;whiteSpace=wrap;rounded=0;" vertex="1" parent="1">
          <mxGeometry x="425" y="340" width="80" height="30" as="geometry" />
        </mxCell>
        <mxCell id="MCNykvPJfx8BUbakbppT-40" value="" style="endArrow=open;html=1;rounded=0;endFill=0;entryX=0;entryY=0;entryDx=0;entryDy=0;" edge="1" parent="1">
          <mxGeometry width="50" height="50" relative="1" as="geometry">
            <mxPoint x="390" y="330" as="sourcePoint" />
            <mxPoint x="530" y="330" as="targetPoint" />
          </mxGeometry>
        </mxCell>
        <mxCell id="MCNykvPJfx8BUbakbppT-41" value="" style="endArrow=open;html=1;rounded=0;endFill=0;exitX=0;exitY=1;exitDx=0;exitDy=0;dashed=1;" edge="1" parent="1">
          <mxGeometry width="50" height="50" relative="1" as="geometry">
            <mxPoint x="530" y="370" as="sourcePoint" />
            <mxPoint x="390" y="370" as="targetPoint" />
          </mxGeometry>
        </mxCell>
        <mxCell id="MCNykvPJfx8BUbakbppT-42" value="" style="endArrow=open;html=1;rounded=0;entryX=0;entryY=0;entryDx=0;entryDy=0;endFill=0;" edge="1" parent="1">
          <mxGeometry width="50" height="50" relative="1" as="geometry">
            <mxPoint x="239.5" y="440" as="sourcePoint" />
            <mxPoint x="372.5" y="440" as="targetPoint" />
          </mxGeometry>
        </mxCell>
        <mxCell id="MCNykvPJfx8BUbakbppT-43" value="Insere dados para persistência" style="text;html=1;strokeColor=none;fillColor=none;align=center;verticalAlign=middle;whiteSpace=wrap;rounded=0;" vertex="1" parent="1">
          <mxGeometry x="254.5" y="410" width="110" height="30" as="geometry" />
        </mxCell>
        <mxCell id="MCNykvPJfx8BUbakbppT-44" value="" style="endArrow=open;html=1;rounded=0;endFill=0;exitX=0.033;exitY=0.195;exitDx=0;exitDy=0;dashed=1;exitPerimeter=0;" edge="1" parent="1">
          <mxGeometry width="50" height="50" relative="1" as="geometry">
            <mxPoint x="370.0049999999999" y="520.0049999999999" as="sourcePoint" />
            <mxPoint x="237.01" y="520.0799999999999" as="targetPoint" />
          </mxGeometry>
        </mxCell>
        <mxCell id="MCNykvPJfx8BUbakbppT-45" value="Exibe notificação de sucesso" style="text;html=1;strokeColor=none;fillColor=none;align=center;verticalAlign=middle;whiteSpace=wrap;rounded=0;" vertex="1" parent="1">
          <mxGeometry x="242.5" y="490" width="130" height="30" as="geometry" />
        </mxCell>
      </root>
    </mxGraphModel>
  </diagram>
</mxfile>
